<svg xmlns="http://www.w3.org/2000/svg" xmlns:xlink="http://www.w3.org/1999/xlink" width="40" height="40" viewBox="0 0 40 40">
  <defs>
    <filter id="Trazado_30" x="0" y="0" width="40" height="40" filterUnits="userSpaceOnUse">
      <feOffset dy="5" input="SourceAlpha"/>
      <feGaussianBlur stdDeviation="3" result="blur"/>
      <feFlood flood-opacity="0.439"/>
      <feComposite operator="in" in2="blur"/>
      <feComposite in="SourceGraphic"/>
    </filter>
    <filter id="Rectángulo_5" x="6.227" y="0.607" width="28.795" height="32.382" filterUnits="userSpaceOnUse">
      <feOffset dy="3" input="SourceAlpha"/>
      <feGaussianBlur stdDeviation="3" result="blur-2"/>
      <feFlood flood-opacity="0.49"/>
      <feComposite operator="in" in2="blur-2"/>
      <feComposite in="SourceGraphic"/>
    </filter>
    <filter id="Polígono_2" x="4.702" y="13.606" width="21.878" height="21.731" filterUnits="userSpaceOnUse">
      <feOffset dy="3" input="SourceAlpha"/>
      <feGaussianBlur stdDeviation="3" result="blur-3"/>
      <feFlood flood-opacity="0.49"/>
      <feComposite operator="in" in2="blur-3"/>
      <feComposite in="SourceGraphic"/>
    </filter>
  </defs>
  <g id="Componente_20_13" data-name="Componente 20 – 13" transform="translate(9 4)">
    <g transform="matrix(1, 0, 0, 1, -9, -4)" filter="url(#Trazado_30)">
      <g id="Trazado_30-2" data-name="Trazado 30" transform="translate(9 4)" fill="#fff">
        <path d="M 11 21.5 C 5.210279941558838 21.5 0.5 16.78972053527832 0.5 11 C 0.5 5.210279941558838 5.210279941558838 0.5 11 0.5 C 16.78972053527832 0.5 21.5 5.210279941558838 21.5 11 C 21.5 16.78972053527832 16.78972053527832 21.5 11 21.5 Z" stroke="none"/>
        <path d="M 11 1 C 5.485979080200195 1 1 5.485979080200195 1 11 C 1 16.51401901245117 5.485979080200195 21 11 21 C 16.51401901245117 21 21 16.51401901245117 21 11 C 21 5.485979080200195 16.51401901245117 1 11 1 M 11 0 C 17.07513046264648 0 22 4.924869537353516 22 11 C 22 17.07513046264648 17.07513046264648 22 11 22 C 4.924869537353516 22 0 17.07513046264648 0 11 C 0 4.924869537353516 4.924869537353516 0 11 0 Z" stroke="none" fill="#0109fc"/>
      </g>
    </g>
    <g id="Grupo_3" data-name="Grupo 3" transform="matrix(-0.839, -0.545, 0.545, -0.839, 7.218, 19.337)">
      <g transform="matrix(-0.84, 0.54, -0.54, -0.84, 26.31, 10.74)" filter="url(#Rectángulo_5)">
        <g id="Rectángulo_5-2" data-name="Rectángulo 5" transform="matrix(-0.84, -0.54, 0.54, -0.84, 17.74, 20.99)" fill="#0109fc" stroke="#0109fc" stroke-linejoin="round" stroke-width="1">
          <path d="M0,0H3A0,0,0,0,1,3,0V15.2a0,0,0,0,1,0,0H.5a.5.5,0,0,1-.5-.5V0A0,0,0,0,1,0,0Z" stroke="none"/>
          <path d="M1,.5H2a.5.5,0,0,1,.5.5V14.2a.5.5,0,0,1-.5.5H.5a0,0,0,0,1,0,0V1A.5.5,0,0,1,1,.5Z" fill="none"/>
        </g>
      </g>
      <g transform="matrix(-0.84, 0.54, -0.54, -0.84, 26.31, 10.74)" filter="url(#Polígono_2)">
        <g id="Polígono_2-2" data-name="Polígono 2" transform="matrix(-0.84, -0.54, 0.54, -0.84, 16.22, 23.34)" fill="#fff" stroke-linejoin="round">
          <path d="M 2.116902112960815 2.000000715255737 L 0.8830989003181458 2.000000715255737 L 1.500001430511475 0.9718266725540161 L 2.116902112960815 2.000000715255737 Z" stroke="none"/>
          <path d="M 1.5 0.09436321258544922 C 1.533164978027344 0.09436321258544922 1.566329956054688 0.1105456352233887 1.585749983787537 0.1429107189178467 L 2.909130096435547 2.348550796508789 C 2.949120044708252 2.415200710296631 2.901109933853149 2.500000715255737 2.823379993438721 2.500000715255737 L 0.1766200065612793 2.500000715255737 C 0.09889006614685059 2.500000715255737 0.05087995529174805 2.415200710296631 0.09086990356445313 2.348550796508789 L 1.414250016212463 0.1429107189178467 C 1.433670043945313 0.1105456352233887 1.466835021972656 0.09436321258544922 1.5 0.09436321258544922 Z" stroke="none" fill="#0109fc"/>
        </g>
      </g>
    </g>
  </g>
</svg>
