<svg xmlns="http://www.w3.org/2000/svg" xmlns:xlink="http://www.w3.org/1999/xlink" width="43" height="43" viewBox="0 0 43 43">
  <defs>
    <style>
      .cls-1 {
        fill: #fff;
      }

      .cls-2 {
        fill: #7f1ae1;
      }

      .cls-3 {
        filter: url(#Trazado_14);
      }
    </style>
    <filter id="Trazado_14" x="0" y="0" width="43" height="43" filterUnits="userSpaceOnUse">
      <feOffset dy="3" input="SourceAlpha"/>
      <feGaussianBlur stdDeviation="3" result="blur"/>
      <feFlood flood-opacity="0.161"/>
      <feComposite operator="in" in2="blur"/>
      <feComposite in="SourceGraphic"/>
    </filter>
  </defs>
  <g id="Grupo_68" data-name="Grupo 68" transform="translate(-297 -188)">
    <g class="cls-3" transform="matrix(1, 0, 0, 1, 297, 188)">
      <path id="Trazado_14-2" data-name="Trazado 14" class="cls-1" d="M12.5,0A12.5,12.5,0,1,1,0,12.5,12.5,12.5,0,0,1,12.5,0Z" transform="translate(9 6)"/>
    </g>
    <g id="Grupo_67" data-name="Grupo 67" transform="matrix(0.454, -0.891, 0.891, 0.454, -10.303, 399.495)">
      <path id="Trazado_17" data-name="Trazado 17" class="cls-2" d="M0,0A2.5,2.5,0,0,1,2.5,2.5v8A2.5,2.5,0,0,1,0,13V0Z" transform="translate(327.378 206.03) rotate(90)"/>
      <rect id="Rect치ngulo_48" data-name="Rect치ngulo 48" class="cls-2" width="3" height="4.5" rx="1" transform="translate(317.843 203.027) rotate(90)"/>
      <rect id="Rect치ngulo_49" data-name="Rect치ngulo 49" class="cls-2" width="3" height="4.5" rx="1" transform="translate(328.643 203.022) rotate(90)"/>
    </g>
  </g>
</svg>
